<?xml version="1.0" standalone="no"?>
<!DOCTYPE svg PUBLIC "-//W3C//DTD SVG 20010904//EN"
 "http://www.w3.org/TR/2001/REC-SVG-20010904/DTD/svg10.dtd">
<svg version="1.0" xmlns="http://www.w3.org/2000/svg"
 width="953.000000pt" height="1348.000000pt" viewBox="0 0 953.000000 1348.000000"
 preserveAspectRatio="xMidYMid meet">
<metadata>
Created by potrace 1.15, written by Peter Selinger 2001-2017
</metadata>
<g transform="translate(0.000000,1348.000000) scale(0.100000,-0.100000)"
fill="#c2c2c2" stroke="none">
<path d="M3961 13415 c-390 -85 -623 -506 -487 -881 85 -232 297 -404 541
-436 l85 -12 0 -328 0 -328 -1727 -2 -1728 -3 -80 -28 c-207 -73 -356 -221
-429 -426 l-31 -86 0 -1125 0 -1125 31 -86 c73 -205 222 -353 429 -426 l80
-28 4125 0 4125 0 86 31 c205 73 353 222 426 429 l28 80 0 1125 0 1125 -28 80
c-73 207 -221 356 -426 429 l-86 31 -1727 3 -1728 2 0 328 0 328 85 12 c147
19 275 84 384 193 343 343 220 910 -236 1094 -105 43 -153 45 -918 44 -582 0
-743 -3 -794 -14z m2281 -3357 c66 -31 128 -91 160 -156 33 -68 33 -216 0
-284 -32 -65 -94 -125 -160 -156 l-57 -27 -1415 0 -1415 0 -57 27 c-114 53
-179 150 -186 278 -5 91 6 135 54 207 41 59 94 99 167 124 49 18 125 18 1452
16 l1400 -2 57 -27z"/>
<path d="M635 7415 c-237 -52 -419 -216 -502 -450 l-28 -80 0 -1125 0 -1125
31 -86 c73 -205 222 -353 429 -426 l80 -28 4125 0 4125 0 80 28 c207 73 356
221 429 426 l31 86 0 1125 0 1125 -31 86 c-73 205 -222 353 -429 426 l-80 28
-4100 2 c-3371 1 -4111 -1 -4160 -12z"/>
<path d="M635 3415 c-237 -52 -419 -216 -502 -450 l-28 -80 0 -1125 0 -1125
31 -86 c73 -205 222 -353 429 -426 l80 -28 4125 0 4125 0 80 28 c207 73 356
221 429 426 l31 86 0 1125 0 1125 -31 86 c-73 205 -222 353 -429 426 l-80 28
-4100 2 c-3371 1 -4111 -1 -4160 -12z"/>
</g>
</svg>
